<?xml version="1.0" encoding="UTF-8" standalone="no"?>
<!-- Created with Inkscape (http://www.inkscape.org/) -->

<svg
   xmlns:dc="http://purl.org/dc/elements/1.1/"
   xmlns:cc="http://creativecommons.org/ns#"
   xmlns:rdf="http://www.w3.org/1999/02/22-rdf-syntax-ns#"
   xmlns:svg="http://www.w3.org/2000/svg"
   xmlns="http://www.w3.org/2000/svg"
   version="1.1"
   width="32"
   height="32"
   id="svg2">
  <defs
     id="defs4" />
  <metadata
     id="metadata7">
    <rdf:RDF>
      <cc:Work
         rdf:about="">
        <dc:format>image/svg+xml</dc:format>
        <dc:type
           rdf:resource="http://purl.org/dc/dcmitype/StillImage" />
        <dc:title></dc:title>
      </cc:Work>
    </rdf:RDF>
  </metadata>
  <g
     transform="translate(0,-1020.3622)"
     id="layer1">
    <path
       d="m 534.37068,591.98517 a 91.671341,91.671341 0 1 1 -183.34268,0 91.671341,91.671341 0 1 1 183.34268,0 z"
       transform="matrix(0.14826299,0,0,0.14826299,-50.135894,948.11176)"
       id="path2985"
       style="color:#000000;fill:#939393;fill-opacity:1;stroke:#ffffff;stroke-width:20.68997955;stroke-miterlimit:4;stroke-opacity:1;stroke-dasharray:none;marker:none;visibility:visible;display:inline;overflow:visible;enable-background:accumulate" />
    <path
       d="m 534.37068,591.98517 a 91.671341,91.671341 0 1 1 -183.34268,0 91.671341,91.671341 0 1 1 183.34268,0 z"
       transform="matrix(0.04648671,0,0,0.04648671,-5.079606,1008.3617)"
       id="path3771"
       style="color:#000000;fill:#333333;fill-opacity:1;stroke:#ffffff;stroke-width:20.68997955;stroke-miterlimit:4;stroke-opacity:1;stroke-dasharray:none;marker:none;visibility:visible;display:inline;overflow:visible;enable-background:accumulate" />
    <path
       d="m 534.37068,591.98517 a 91.671341,91.671341 0 1 1 -183.34268,0 91.671341,91.671341 0 1 1 183.34268,0 z"
       transform="matrix(0.09360536,0,0,0.09360536,-25.938997,980.46822)"
       id="path3769"
       style="color:#000000;fill:#808080;fill-opacity:1;stroke:#ffffff;stroke-width:20.68997955;stroke-miterlimit:4;stroke-opacity:1;stroke-dasharray:none;marker:none;visibility:visible;display:inline;overflow:visible;enable-background:accumulate" />
    <path
       d="m 18.650375,1030.9772 0,9.616 12.242446,-4.9857 z"
       id="path3773"
       style="fill:#000000;fill-opacity:1;stroke:#ffffff;stroke-width:0.67908919;stroke-linecap:butt;stroke-linejoin:miter;stroke-miterlimit:4;stroke-opacity:1;stroke-dasharray:none" />
  </g>
</svg>
